<mxfile host="app.diagrams.net" modified="2023-09-26T01:06:30.200Z" agent="Mozilla/5.0 (Windows NT 10.0; Win64; x64) AppleWebKit/537.36 (KHTML, like Gecko) Chrome/116.0.0.0 Safari/537.36" etag="98b-OLfIPQBo1Jp4AuC0" version="21.8.2" type="device" pages="4">
  <diagram name="Draft" id="0783ab3e-0a74-02c8-0abd-f7b4e66b4bec">
    <mxGraphModel dx="1235" dy="706" grid="1" gridSize="10" guides="1" tooltips="1" connect="1" arrows="1" fold="1" page="1" pageScale="1" pageWidth="850" pageHeight="1100" background="none" math="0" shadow="0">
      <root>
        <mxCell id="0" />
        <mxCell id="1" parent="0" />
        <mxCell id="1c1d494c118603dd-1" value="Parent Authentication Activity" style="swimlane;html=1;childLayout=stackLayout;startSize=20;rounded=0;shadow=0;comic=0;labelBackgroundColor=none;strokeWidth=1;fontFamily=Verdana;fontSize=12;align=center;" parent="1" vertex="1">
          <mxGeometry x="190" y="120" width="500" height="810" as="geometry">
            <mxRectangle x="-20" y="110" width="50" height="40" as="alternateBounds" />
          </mxGeometry>
        </mxCell>
        <mxCell id="1c1d494c118603dd-2" value="Parent" style="swimlane;html=1;startSize=20;" parent="1c1d494c118603dd-1" vertex="1">
          <mxGeometry y="20" width="250" height="790" as="geometry">
            <mxRectangle y="20" width="40" height="790" as="alternateBounds" />
          </mxGeometry>
        </mxCell>
        <mxCell id="60571a20871a0731-4" value="" style="ellipse;whiteSpace=wrap;html=1;rounded=0;shadow=0;comic=0;labelBackgroundColor=none;strokeWidth=1;fillColor=#000000;fontFamily=Verdana;fontSize=12;align=center;" parent="1c1d494c118603dd-2" vertex="1">
          <mxGeometry x="115" y="50" width="20" height="20" as="geometry" />
        </mxCell>
        <mxCell id="ksLqOW9FXhATi2RWHuYi-3" value="" style="edgeStyle=orthogonalEdgeStyle;rounded=0;orthogonalLoop=1;jettySize=auto;html=1;" parent="1c1d494c118603dd-2" source="60571a20871a0731-8" target="ZWokSM_3O8m1IbiA0yzi-1" edge="1">
          <mxGeometry relative="1" as="geometry" />
        </mxCell>
        <mxCell id="60571a20871a0731-8" value="Open app" style="rounded=1;whiteSpace=wrap;html=1;shadow=0;comic=0;labelBackgroundColor=none;strokeWidth=1;fontFamily=Helvetica;fontSize=12;align=center;arcSize=13;glass=0;" parent="1c1d494c118603dd-2" vertex="1">
          <mxGeometry x="75" y="120" width="100" height="30" as="geometry" />
        </mxCell>
        <mxCell id="1c1d494c118603dd-27" style="edgeStyle=orthogonalEdgeStyle;rounded=0;html=1;labelBackgroundColor=none;startArrow=none;startFill=0;startSize=5;endArrow=classicThin;endFill=1;endSize=5;jettySize=auto;orthogonalLoop=1;strokeWidth=1;fontFamily=Verdana;fontSize=12" parent="1c1d494c118603dd-2" source="60571a20871a0731-4" target="60571a20871a0731-8" edge="1">
          <mxGeometry relative="1" as="geometry" />
        </mxCell>
        <mxCell id="ZWokSM_3O8m1IbiA0yzi-1" value="" style="rhombus;whiteSpace=wrap;html=1;" parent="1c1d494c118603dd-2" vertex="1">
          <mxGeometry x="90" y="180" width="70" height="70" as="geometry" />
        </mxCell>
        <mxCell id="ksLqOW9FXhATi2RWHuYi-4" value="Enter username and password" style="rounded=1;whiteSpace=wrap;html=1;shadow=0;comic=0;labelBackgroundColor=none;strokeWidth=1;fontFamily=Helvetica;fontSize=12;align=center;arcSize=13;glass=0;" parent="1c1d494c118603dd-2" vertex="1">
          <mxGeometry x="145" y="290" width="100" height="30" as="geometry" />
        </mxCell>
        <mxCell id="ksLqOW9FXhATi2RWHuYi-15" value="Enter username and password" style="rounded=1;whiteSpace=wrap;html=1;shadow=0;comic=0;labelBackgroundColor=none;strokeWidth=1;fontFamily=Helvetica;fontSize=12;align=center;arcSize=13;glass=0;" parent="1c1d494c118603dd-2" vertex="1">
          <mxGeometry x="75" y="490" width="100" height="30" as="geometry" />
        </mxCell>
        <mxCell id="ksLqOW9FXhATi2RWHuYi-19" style="edgeStyle=orthogonalEdgeStyle;rounded=0;orthogonalLoop=1;jettySize=auto;html=1;entryX=0;entryY=0.5;entryDx=0;entryDy=0;" parent="1c1d494c118603dd-1" source="ksLqOW9FXhATi2RWHuYi-15" target="ksLqOW9FXhATi2RWHuYi-18" edge="1">
          <mxGeometry relative="1" as="geometry">
            <Array as="points">
              <mxPoint x="125" y="595" />
            </Array>
          </mxGeometry>
        </mxCell>
        <mxCell id="ksLqOW9FXhATi2RWHuYi-7" style="edgeStyle=orthogonalEdgeStyle;rounded=0;orthogonalLoop=1;jettySize=auto;html=1;entryX=0;entryY=0.5;entryDx=0;entryDy=0;" parent="1c1d494c118603dd-1" source="ZWokSM_3O8m1IbiA0yzi-1" target="ZWokSM_3O8m1IbiA0yzi-4" edge="1">
          <mxGeometry relative="1" as="geometry" />
        </mxCell>
        <mxCell id="ksLqOW9FXhATi2RWHuYi-11" value="Register" style="edgeLabel;html=1;align=center;verticalAlign=middle;resizable=0;points=[];" parent="ksLqOW9FXhATi2RWHuYi-7" vertex="1" connectable="0">
          <mxGeometry x="-0.4086" y="3" relative="1" as="geometry">
            <mxPoint y="3" as="offset" />
          </mxGeometry>
        </mxCell>
        <mxCell id="ksLqOW9FXhATi2RWHuYi-9" style="edgeStyle=orthogonalEdgeStyle;rounded=0;orthogonalLoop=1;jettySize=auto;html=1;entryX=0.5;entryY=0;entryDx=0;entryDy=0;" parent="1c1d494c118603dd-1" source="ZWokSM_3O8m1IbiA0yzi-4" target="ksLqOW9FXhATi2RWHuYi-4" edge="1">
          <mxGeometry relative="1" as="geometry">
            <Array as="points">
              <mxPoint x="375" y="270" />
              <mxPoint x="195" y="270" />
            </Array>
          </mxGeometry>
        </mxCell>
        <mxCell id="ksLqOW9FXhATi2RWHuYi-10" style="edgeStyle=orthogonalEdgeStyle;rounded=0;orthogonalLoop=1;jettySize=auto;html=1;entryX=0;entryY=0.5;entryDx=0;entryDy=0;" parent="1c1d494c118603dd-1" source="ksLqOW9FXhATi2RWHuYi-4" target="ksLqOW9FXhATi2RWHuYi-5" edge="1">
          <mxGeometry relative="1" as="geometry">
            <Array as="points">
              <mxPoint x="195" y="385" />
            </Array>
          </mxGeometry>
        </mxCell>
        <mxCell id="ksLqOW9FXhATi2RWHuYi-12" style="edgeStyle=orthogonalEdgeStyle;rounded=0;orthogonalLoop=1;jettySize=auto;html=1;entryX=0;entryY=0.5;entryDx=0;entryDy=0;" parent="1c1d494c118603dd-1" source="ZWokSM_3O8m1IbiA0yzi-1" target="ksLqOW9FXhATi2RWHuYi-6" edge="1">
          <mxGeometry relative="1" as="geometry">
            <Array as="points">
              <mxPoint x="125" y="455" />
            </Array>
          </mxGeometry>
        </mxCell>
        <mxCell id="ksLqOW9FXhATi2RWHuYi-13" value="Login" style="edgeLabel;html=1;align=center;verticalAlign=middle;resizable=0;points=[];" parent="ksLqOW9FXhATi2RWHuYi-12" vertex="1" connectable="0">
          <mxGeometry x="-0.9051" y="2" relative="1" as="geometry">
            <mxPoint as="offset" />
          </mxGeometry>
        </mxCell>
        <mxCell id="ksLqOW9FXhATi2RWHuYi-16" style="edgeStyle=orthogonalEdgeStyle;rounded=0;orthogonalLoop=1;jettySize=auto;html=1;entryX=0.5;entryY=0;entryDx=0;entryDy=0;" parent="1c1d494c118603dd-1" source="ksLqOW9FXhATi2RWHuYi-6" target="ksLqOW9FXhATi2RWHuYi-15" edge="1">
          <mxGeometry relative="1" as="geometry">
            <Array as="points">
              <mxPoint x="375" y="490" />
              <mxPoint x="125" y="490" />
            </Array>
          </mxGeometry>
        </mxCell>
        <mxCell id="1c1d494c118603dd-3" value="System" style="swimlane;html=1;startSize=20;" parent="1c1d494c118603dd-1" vertex="1">
          <mxGeometry x="250" y="20" width="250" height="790" as="geometry">
            <mxRectangle x="250" y="20" width="40" height="790" as="alternateBounds" />
          </mxGeometry>
        </mxCell>
        <mxCell id="ZWokSM_3O8m1IbiA0yzi-4" value="Show create account screen" style="rounded=1;whiteSpace=wrap;html=1;shadow=0;comic=0;labelBackgroundColor=none;strokeWidth=1;fontFamily=Helvetica;fontSize=12;align=center;arcSize=13;glass=0;" parent="1c1d494c118603dd-3" vertex="1">
          <mxGeometry x="75" y="200" width="100" height="30" as="geometry" />
        </mxCell>
        <mxCell id="ksLqOW9FXhATi2RWHuYi-14" style="edgeStyle=orthogonalEdgeStyle;rounded=0;orthogonalLoop=1;jettySize=auto;html=1;entryX=0.5;entryY=0;entryDx=0;entryDy=0;" parent="1c1d494c118603dd-3" source="ksLqOW9FXhATi2RWHuYi-5" target="ksLqOW9FXhATi2RWHuYi-6" edge="1">
          <mxGeometry relative="1" as="geometry" />
        </mxCell>
        <mxCell id="ksLqOW9FXhATi2RWHuYi-5" value="Validate and save data" style="rounded=1;whiteSpace=wrap;html=1;shadow=0;comic=0;labelBackgroundColor=none;strokeWidth=1;fontFamily=Helvetica;fontSize=12;align=center;arcSize=13;glass=0;" parent="1c1d494c118603dd-3" vertex="1">
          <mxGeometry x="75" y="350" width="100" height="30" as="geometry" />
        </mxCell>
        <mxCell id="ksLqOW9FXhATi2RWHuYi-6" value="Show login screen" style="rounded=1;whiteSpace=wrap;html=1;shadow=0;comic=0;labelBackgroundColor=none;strokeWidth=1;fontFamily=Helvetica;fontSize=12;align=center;arcSize=13;glass=0;" parent="1c1d494c118603dd-3" vertex="1">
          <mxGeometry x="75" y="420" width="100" height="30" as="geometry" />
        </mxCell>
        <mxCell id="ksLqOW9FXhATi2RWHuYi-29" value="" style="edgeStyle=orthogonalEdgeStyle;rounded=0;orthogonalLoop=1;jettySize=auto;html=1;" parent="1c1d494c118603dd-3" source="ksLqOW9FXhATi2RWHuYi-18" target="ksLqOW9FXhATi2RWHuYi-24" edge="1">
          <mxGeometry relative="1" as="geometry" />
        </mxCell>
        <mxCell id="ksLqOW9FXhATi2RWHuYi-30" value="Valid user" style="edgeLabel;html=1;align=center;verticalAlign=middle;resizable=0;points=[];" parent="ksLqOW9FXhATi2RWHuYi-29" vertex="1" connectable="0">
          <mxGeometry x="-0.4026" y="2" relative="1" as="geometry">
            <mxPoint x="-2" as="offset" />
          </mxGeometry>
        </mxCell>
        <mxCell id="ksLqOW9FXhATi2RWHuYi-18" value="" style="rhombus;whiteSpace=wrap;html=1;" parent="1c1d494c118603dd-3" vertex="1">
          <mxGeometry x="90" y="540" width="70" height="70" as="geometry" />
        </mxCell>
        <mxCell id="yeijrc0RgiJyu4RW4H2w-2" style="edgeStyle=orthogonalEdgeStyle;rounded=0;orthogonalLoop=1;jettySize=auto;html=1;exitX=0.5;exitY=1;exitDx=0;exitDy=0;entryX=0.5;entryY=0;entryDx=0;entryDy=0;" edge="1" parent="1c1d494c118603dd-3" source="ksLqOW9FXhATi2RWHuYi-24" target="yeijrc0RgiJyu4RW4H2w-1">
          <mxGeometry relative="1" as="geometry" />
        </mxCell>
        <mxCell id="ksLqOW9FXhATi2RWHuYi-24" value="Show home screen" style="rounded=1;whiteSpace=wrap;html=1;shadow=0;comic=0;labelBackgroundColor=none;strokeWidth=1;fontFamily=Helvetica;fontSize=12;align=center;arcSize=13;glass=0;" parent="1c1d494c118603dd-3" vertex="1">
          <mxGeometry x="75" y="650" width="100" height="30" as="geometry" />
        </mxCell>
        <mxCell id="ksLqOW9FXhATi2RWHuYi-20" style="edgeStyle=orthogonalEdgeStyle;rounded=0;orthogonalLoop=1;jettySize=auto;html=1;entryX=1;entryY=0.5;entryDx=0;entryDy=0;exitX=1;exitY=0.5;exitDx=0;exitDy=0;" parent="1c1d494c118603dd-3" source="ksLqOW9FXhATi2RWHuYi-18" target="ksLqOW9FXhATi2RWHuYi-6" edge="1">
          <mxGeometry relative="1" as="geometry">
            <Array as="points">
              <mxPoint x="210" y="575" />
              <mxPoint x="210" y="435" />
            </Array>
          </mxGeometry>
        </mxCell>
        <mxCell id="X3yoduzlTANAo0dS0pyc-5" value="Invalid user" style="edgeLabel;html=1;align=center;verticalAlign=middle;resizable=0;points=[];" vertex="1" connectable="0" parent="ksLqOW9FXhATi2RWHuYi-20">
          <mxGeometry x="-0.6996" relative="1" as="geometry">
            <mxPoint x="16" y="-35" as="offset" />
          </mxGeometry>
        </mxCell>
        <mxCell id="yeijrc0RgiJyu4RW4H2w-1" value="" style="ellipse;html=1;shape=endState;fillColor=#000000;strokeColor=#000000;" vertex="1" parent="1c1d494c118603dd-3">
          <mxGeometry x="110" y="720" width="30" height="29" as="geometry" />
        </mxCell>
      </root>
    </mxGraphModel>
  </diagram>
  <diagram id="jbLMk0LLl3V6_aEFPjNx" name="Parent activities">
    <mxGraphModel dx="1500" dy="857" grid="1" gridSize="10" guides="1" tooltips="1" connect="1" arrows="1" fold="1" page="1" pageScale="1" pageWidth="827" pageHeight="1169" math="0" shadow="0">
      <root>
        <mxCell id="0" />
        <mxCell id="1" parent="0" />
        <mxCell id="dCrRI7VogXeGSG5UVAow-32" value="" style="ellipse;whiteSpace=wrap;html=1;rounded=0;shadow=0;comic=0;labelBackgroundColor=none;strokeWidth=1;fillColor=#000000;fontFamily=Verdana;fontSize=12;align=center;" parent="1" vertex="1">
          <mxGeometry x="520" y="240" width="20" height="20" as="geometry" />
        </mxCell>
        <mxCell id="A4zBZBQB6NQQ8ThlBISS-3" style="edgeStyle=orthogonalEdgeStyle;rounded=0;orthogonalLoop=1;jettySize=auto;html=1;entryX=0.5;entryY=0;entryDx=0;entryDy=0;" edge="1" parent="1" source="dCrRI7VogXeGSG5UVAow-32" target="A4zBZBQB6NQQ8ThlBISS-2">
          <mxGeometry relative="1" as="geometry">
            <mxPoint x="530" y="260" as="sourcePoint" />
          </mxGeometry>
        </mxCell>
        <mxCell id="STxSh7CRezQ_D9se3Xfk-1" style="edgeStyle=orthogonalEdgeStyle;rounded=0;orthogonalLoop=1;jettySize=auto;html=1;exitX=0.5;exitY=1;exitDx=0;exitDy=0;entryX=0;entryY=0;entryDx=0;entryDy=0;" edge="1" parent="1" source="dCrRI7VogXeGSG5UVAow-37" target="-qJHVXFUxBhgLlXE5m1J-4">
          <mxGeometry relative="1" as="geometry">
            <Array as="points">
              <mxPoint x="377" y="779" />
            </Array>
          </mxGeometry>
        </mxCell>
        <mxCell id="dCrRI7VogXeGSG5UVAow-37" value="Block or unblock child account" style="rounded=1;whiteSpace=wrap;html=1;" parent="1" vertex="1">
          <mxGeometry x="317.38" y="561" width="120" height="40" as="geometry" />
        </mxCell>
        <mxCell id="R-i1GgzrhhYik5RixknP-26" style="edgeStyle=orthogonalEdgeStyle;rounded=0;orthogonalLoop=1;jettySize=auto;html=1;entryX=1;entryY=1;entryDx=0;entryDy=0;" parent="1" target="-qJHVXFUxBhgLlXE5m1J-4" edge="1">
          <mxGeometry relative="1" as="geometry">
            <Array as="points">
              <mxPoint x="975" y="816" />
            </Array>
            <mxPoint x="975" y="601" as="sourcePoint" />
            <mxPoint x="975" y="766" as="targetPoint" />
          </mxGeometry>
        </mxCell>
        <mxCell id="dCrRI7VogXeGSG5UVAow-38" value="View child order history" style="rounded=1;whiteSpace=wrap;html=1;" parent="1" vertex="1">
          <mxGeometry x="915" y="561" width="120" height="40" as="geometry" />
        </mxCell>
        <mxCell id="dCrRI7VogXeGSG5UVAow-47" value="" style="edgeStyle=orthogonalEdgeStyle;rounded=0;orthogonalLoop=1;jettySize=auto;html=1;" parent="1" source="dCrRI7VogXeGSG5UVAow-43" target="dCrRI7VogXeGSG5UVAow-44" edge="1">
          <mxGeometry relative="1" as="geometry" />
        </mxCell>
        <mxCell id="dCrRI7VogXeGSG5UVAow-43" value="Provide child information" style="rounded=1;whiteSpace=wrap;html=1;" parent="1" vertex="1">
          <mxGeometry x="120" y="400" width="120" height="40" as="geometry" />
        </mxCell>
        <mxCell id="dCrRI7VogXeGSG5UVAow-48" value="" style="edgeStyle=orthogonalEdgeStyle;rounded=0;orthogonalLoop=1;jettySize=auto;html=1;" parent="1" source="dCrRI7VogXeGSG5UVAow-44" target="dCrRI7VogXeGSG5UVAow-45" edge="1">
          <mxGeometry relative="1" as="geometry" />
        </mxCell>
        <mxCell id="dCrRI7VogXeGSG5UVAow-44" value="Associate a tag number" style="rounded=1;whiteSpace=wrap;html=1;" parent="1" vertex="1">
          <mxGeometry x="120" y="480" width="120" height="40" as="geometry" />
        </mxCell>
        <mxCell id="R-i1GgzrhhYik5RixknP-20" value="" style="edgeStyle=orthogonalEdgeStyle;rounded=0;orthogonalLoop=1;jettySize=auto;html=1;entryX=0;entryY=1;entryDx=0;entryDy=0;" parent="1" source="dCrRI7VogXeGSG5UVAow-45" target="-qJHVXFUxBhgLlXE5m1J-4" edge="1">
          <mxGeometry relative="1" as="geometry">
            <Array as="points">
              <mxPoint x="180" y="816" />
            </Array>
            <mxPoint x="180" y="650" as="targetPoint" />
          </mxGeometry>
        </mxCell>
        <mxCell id="dCrRI7VogXeGSG5UVAow-45" value="Select a password image" style="rounded=1;whiteSpace=wrap;html=1;" parent="1" vertex="1">
          <mxGeometry x="120" y="560" width="120" height="40" as="geometry" />
        </mxCell>
        <mxCell id="R-i1GgzrhhYik5RixknP-15" style="edgeStyle=orthogonalEdgeStyle;rounded=0;orthogonalLoop=1;jettySize=auto;html=1;entryX=0.5;entryY=0;entryDx=0;entryDy=0;" parent="1" source="R-i1GgzrhhYik5RixknP-4" target="R-i1GgzrhhYik5RixknP-9" edge="1">
          <mxGeometry relative="1" as="geometry" />
        </mxCell>
        <mxCell id="R-i1GgzrhhYik5RixknP-4" value="Set snack options" style="rounded=1;whiteSpace=wrap;html=1;" parent="1" vertex="1">
          <mxGeometry x="466" y="561" width="120" height="40" as="geometry" />
        </mxCell>
        <mxCell id="R-i1GgzrhhYik5RixknP-16" style="edgeStyle=orthogonalEdgeStyle;rounded=0;orthogonalLoop=1;jettySize=auto;html=1;" parent="1" source="R-i1GgzrhhYik5RixknP-5" target="R-i1GgzrhhYik5RixknP-10" edge="1">
          <mxGeometry relative="1" as="geometry" />
        </mxCell>
        <mxCell id="R-i1GgzrhhYik5RixknP-5" value="Set budget" style="rounded=1;whiteSpace=wrap;html=1;" parent="1" vertex="1">
          <mxGeometry x="766" y="561" width="120" height="40" as="geometry" />
        </mxCell>
        <mxCell id="R-i1GgzrhhYik5RixknP-22" value="" style="edgeStyle=orthogonalEdgeStyle;rounded=0;orthogonalLoop=1;jettySize=auto;html=1;entryX=0.5;entryY=0;entryDx=0;entryDy=0;" parent="1" source="R-i1GgzrhhYik5RixknP-9" target="-qJHVXFUxBhgLlXE5m1J-4" edge="1">
          <mxGeometry relative="1" as="geometry">
            <Array as="points" />
            <mxPoint x="526" y="766" as="targetPoint" />
          </mxGeometry>
        </mxCell>
        <mxCell id="R-i1GgzrhhYik5RixknP-9" value="Set the availability of each snack" style="rounded=1;whiteSpace=wrap;html=1;" parent="1" vertex="1">
          <mxGeometry x="466" y="653.5" width="120" height="40" as="geometry" />
        </mxCell>
        <mxCell id="R-i1GgzrhhYik5RixknP-23" value="" style="edgeStyle=orthogonalEdgeStyle;rounded=0;orthogonalLoop=1;jettySize=auto;html=1;entryX=1;entryY=0.5;entryDx=0;entryDy=0;" parent="1" source="R-i1GgzrhhYik5RixknP-10" target="-qJHVXFUxBhgLlXE5m1J-4" edge="1">
          <mxGeometry relative="1" as="geometry">
            <Array as="points">
              <mxPoint x="826" y="798" />
            </Array>
            <mxPoint x="826" y="766" as="targetPoint" />
          </mxGeometry>
        </mxCell>
        <mxCell id="R-i1GgzrhhYik5RixknP-10" value="Set the max amount to be spent in a day" style="rounded=1;whiteSpace=wrap;html=1;" parent="1" vertex="1">
          <mxGeometry x="766" y="653.5" width="120" height="40" as="geometry" />
        </mxCell>
        <mxCell id="A4zBZBQB6NQQ8ThlBISS-5" value="Register child" style="edgeStyle=orthogonalEdgeStyle;rounded=0;orthogonalLoop=1;jettySize=auto;html=1;exitX=0;exitY=0.5;exitDx=0;exitDy=0;entryX=0.5;entryY=0;entryDx=0;entryDy=0;" edge="1" parent="1" source="A4zBZBQB6NQQ8ThlBISS-2" target="dCrRI7VogXeGSG5UVAow-43">
          <mxGeometry x="-0.0024" relative="1" as="geometry">
            <mxPoint x="180" y="400" as="targetPoint" />
            <mxPoint as="offset" />
          </mxGeometry>
        </mxCell>
        <mxCell id="iORXuNO52tQnhGEUHTG1-2" style="edgeStyle=orthogonalEdgeStyle;rounded=0;orthogonalLoop=1;jettySize=auto;html=1;exitX=1;exitY=0.5;exitDx=0;exitDy=0;entryX=0.5;entryY=0;entryDx=0;entryDy=0;" edge="1" parent="1" source="A4zBZBQB6NQQ8ThlBISS-2" target="A4zBZBQB6NQQ8ThlBISS-6">
          <mxGeometry relative="1" as="geometry">
            <mxPoint x="605.9999999999998" y="340" as="sourcePoint" />
          </mxGeometry>
        </mxCell>
        <mxCell id="iORXuNO52tQnhGEUHTG1-3" value="Select child" style="edgeLabel;html=1;align=center;verticalAlign=middle;resizable=0;points=[];" vertex="1" connectable="0" parent="iORXuNO52tQnhGEUHTG1-2">
          <mxGeometry x="0.0429" y="-1" relative="1" as="geometry">
            <mxPoint x="1" y="29" as="offset" />
          </mxGeometry>
        </mxCell>
        <mxCell id="A4zBZBQB6NQQ8ThlBISS-2" value="" style="rhombus;whiteSpace=wrap;html=1;" vertex="1" parent="1">
          <mxGeometry x="492.5" y="300" width="75" height="75" as="geometry" />
        </mxCell>
        <mxCell id="A4zBZBQB6NQQ8ThlBISS-9" style="edgeStyle=orthogonalEdgeStyle;rounded=0;orthogonalLoop=1;jettySize=auto;html=1;exitX=0;exitY=0;exitDx=0;exitDy=0;entryX=0.5;entryY=0;entryDx=0;entryDy=0;" edge="1" parent="1" source="A4zBZBQB6NQQ8ThlBISS-6" target="dCrRI7VogXeGSG5UVAow-37">
          <mxGeometry relative="1" as="geometry" />
        </mxCell>
        <mxCell id="iORXuNO52tQnhGEUHTG1-5" style="edgeStyle=orthogonalEdgeStyle;rounded=0;orthogonalLoop=1;jettySize=auto;html=1;exitX=1;exitY=0;exitDx=0;exitDy=0;entryX=0.5;entryY=0;entryDx=0;entryDy=0;" edge="1" parent="1" source="A4zBZBQB6NQQ8ThlBISS-6" target="dCrRI7VogXeGSG5UVAow-38">
          <mxGeometry relative="1" as="geometry" />
        </mxCell>
        <mxCell id="iORXuNO52tQnhGEUHTG1-7" style="edgeStyle=orthogonalEdgeStyle;rounded=0;orthogonalLoop=1;jettySize=auto;html=1;exitX=0.5;exitY=1;exitDx=0;exitDy=0;entryX=0.5;entryY=0;entryDx=0;entryDy=0;" edge="1" parent="1" source="A4zBZBQB6NQQ8ThlBISS-6" target="iORXuNO52tQnhGEUHTG1-6">
          <mxGeometry relative="1" as="geometry">
            <mxPoint x="674" y="543.5" as="sourcePoint" />
          </mxGeometry>
        </mxCell>
        <mxCell id="iORXuNO52tQnhGEUHTG1-8" style="edgeStyle=orthogonalEdgeStyle;rounded=0;orthogonalLoop=1;jettySize=auto;html=1;exitX=1;exitY=1;exitDx=0;exitDy=0;" edge="1" parent="1" source="A4zBZBQB6NQQ8ThlBISS-6" target="R-i1GgzrhhYik5RixknP-5">
          <mxGeometry relative="1" as="geometry" />
        </mxCell>
        <mxCell id="iORXuNO52tQnhGEUHTG1-9" style="edgeStyle=orthogonalEdgeStyle;rounded=0;orthogonalLoop=1;jettySize=auto;html=1;exitX=0;exitY=1;exitDx=0;exitDy=0;" edge="1" parent="1" source="A4zBZBQB6NQQ8ThlBISS-6" target="R-i1GgzrhhYik5RixknP-4">
          <mxGeometry relative="1" as="geometry" />
        </mxCell>
        <mxCell id="A4zBZBQB6NQQ8ThlBISS-6" value="" style="rhombus;whiteSpace=wrap;html=1;" vertex="1" parent="1">
          <mxGeometry x="636.5" y="452.5" width="75" height="75" as="geometry" />
        </mxCell>
        <mxCell id="-qJHVXFUxBhgLlXE5m1J-3" style="edgeStyle=orthogonalEdgeStyle;rounded=0;orthogonalLoop=1;jettySize=auto;html=1;exitX=0.5;exitY=1;exitDx=0;exitDy=0;entryX=0.5;entryY=0;entryDx=0;entryDy=0;" edge="1" parent="1" source="iORXuNO52tQnhGEUHTG1-6" target="-qJHVXFUxBhgLlXE5m1J-2">
          <mxGeometry relative="1" as="geometry" />
        </mxCell>
        <mxCell id="iORXuNO52tQnhGEUHTG1-6" value="Register payment method" style="rounded=1;whiteSpace=wrap;html=1;" vertex="1" parent="1">
          <mxGeometry x="614" y="561" width="120" height="40" as="geometry" />
        </mxCell>
        <mxCell id="-qJHVXFUxBhgLlXE5m1J-5" style="edgeStyle=orthogonalEdgeStyle;rounded=0;orthogonalLoop=1;jettySize=auto;html=1;exitX=0.5;exitY=1;exitDx=0;exitDy=0;entryX=1;entryY=0;entryDx=0;entryDy=0;" edge="1" parent="1" source="-qJHVXFUxBhgLlXE5m1J-2" target="-qJHVXFUxBhgLlXE5m1J-4">
          <mxGeometry relative="1" as="geometry">
            <Array as="points">
              <mxPoint x="674" y="779" />
            </Array>
          </mxGeometry>
        </mxCell>
        <mxCell id="-qJHVXFUxBhgLlXE5m1J-2" value="Provide payment information" style="rounded=1;whiteSpace=wrap;html=1;" vertex="1" parent="1">
          <mxGeometry x="614" y="653.5" width="120" height="40" as="geometry" />
        </mxCell>
        <mxCell id="fHASjYRtkkdIIVFIb8wK-31" value="App Navigation Activities" style="swimlane;whiteSpace=wrap;html=1;" vertex="1" parent="1">
          <mxGeometry x="80" y="200" width="1000" height="800" as="geometry" />
        </mxCell>
        <mxCell id="R-i1GgzrhhYik5RixknP-27" value="" style="ellipse;html=1;shape=endState;fillColor=#000000;strokeColor=#000000;" parent="fHASjYRtkkdIIVFIb8wK-31" vertex="1">
          <mxGeometry x="431" y="670" width="30" height="29" as="geometry" />
        </mxCell>
        <mxCell id="-qJHVXFUxBhgLlXE5m1J-7" style="edgeStyle=orthogonalEdgeStyle;rounded=0;orthogonalLoop=1;jettySize=auto;html=1;exitX=0.5;exitY=1;exitDx=0;exitDy=0;entryX=0.5;entryY=0;entryDx=0;entryDy=0;" edge="1" parent="fHASjYRtkkdIIVFIb8wK-31" source="-qJHVXFUxBhgLlXE5m1J-4" target="R-i1GgzrhhYik5RixknP-27">
          <mxGeometry relative="1" as="geometry" />
        </mxCell>
        <mxCell id="-qJHVXFUxBhgLlXE5m1J-4" value="" style="rhombus;whiteSpace=wrap;html=1;" vertex="1" parent="fHASjYRtkkdIIVFIb8wK-31">
          <mxGeometry x="408.5" y="560" width="75" height="75" as="geometry" />
        </mxCell>
      </root>
    </mxGraphModel>
  </diagram>
  <diagram id="IT4OblGA_uglqXRC531R" name="Child activities">
    <mxGraphModel dx="1615" dy="923" grid="1" gridSize="10" guides="1" tooltips="1" connect="1" arrows="1" fold="1" page="1" pageScale="1" pageWidth="827" pageHeight="1169" math="0" shadow="0">
      <root>
        <mxCell id="0" />
        <mxCell id="1" parent="0" />
        <mxCell id="lxjIZeJzsX1PqnyMVu6G-1" value="" style="edgeStyle=orthogonalEdgeStyle;rounded=0;orthogonalLoop=1;jettySize=auto;html=1;" parent="1" source="lxjIZeJzsX1PqnyMVu6G-2" target="lxjIZeJzsX1PqnyMVu6G-4" edge="1">
          <mxGeometry relative="1" as="geometry" />
        </mxCell>
        <mxCell id="lxjIZeJzsX1PqnyMVu6G-2" value="" style="ellipse;whiteSpace=wrap;html=1;rounded=0;shadow=0;comic=0;labelBackgroundColor=none;strokeWidth=1;fillColor=#000000;fontFamily=Verdana;fontSize=12;align=center;" parent="1" vertex="1">
          <mxGeometry x="190.25" y="80" width="20" height="20" as="geometry" />
        </mxCell>
        <mxCell id="lxjIZeJzsX1PqnyMVu6G-3" value="" style="edgeStyle=orthogonalEdgeStyle;rounded=0;orthogonalLoop=1;jettySize=auto;html=1;entryX=0.5;entryY=0;entryDx=0;entryDy=0;" parent="1" source="lxjIZeJzsX1PqnyMVu6G-4" target="9g6fr28oXQyt0fG_JzUV-1" edge="1">
          <mxGeometry relative="1" as="geometry">
            <mxPoint x="200.25" y="220" as="targetPoint" />
          </mxGeometry>
        </mxCell>
        <mxCell id="lxjIZeJzsX1PqnyMVu6G-4" value="Use NFC tag to authenticate" style="rounded=1;whiteSpace=wrap;html=1;" parent="1" vertex="1">
          <mxGeometry x="140.25" y="140" width="120" height="40" as="geometry" />
        </mxCell>
        <mxCell id="9g6fr28oXQyt0fG_JzUV-18" value="" style="edgeStyle=orthogonalEdgeStyle;rounded=0;orthogonalLoop=1;jettySize=auto;html=1;" parent="1" source="lxjIZeJzsX1PqnyMVu6G-6" target="9g6fr28oXQyt0fG_JzUV-13" edge="1">
          <mxGeometry relative="1" as="geometry" />
        </mxCell>
        <mxCell id="lxjIZeJzsX1PqnyMVu6G-6" value="Choose snack" style="rounded=1;whiteSpace=wrap;html=1;" parent="1" vertex="1">
          <mxGeometry x="140.25" y="540" width="120" height="40" as="geometry" />
        </mxCell>
        <mxCell id="9g6fr28oXQyt0fG_JzUV-20" value="" style="edgeStyle=orthogonalEdgeStyle;rounded=0;orthogonalLoop=1;jettySize=auto;html=1;" parent="1" source="lxjIZeJzsX1PqnyMVu6G-16" target="lxjIZeJzsX1PqnyMVu6G-41" edge="1">
          <mxGeometry relative="1" as="geometry" />
        </mxCell>
        <mxCell id="lxjIZeJzsX1PqnyMVu6G-16" value="Collect snack" style="rounded=1;whiteSpace=wrap;html=1;" parent="1" vertex="1">
          <mxGeometry x="140.25" y="749.01" width="120" height="40" as="geometry" />
        </mxCell>
        <mxCell id="lxjIZeJzsX1PqnyMVu6G-41" value="" style="ellipse;html=1;shape=endState;fillColor=#000000;strokeColor=#000000;" parent="1" vertex="1">
          <mxGeometry x="185.25" y="830.01" width="30" height="29" as="geometry" />
        </mxCell>
        <mxCell id="9g6fr28oXQyt0fG_JzUV-4" style="edgeStyle=orthogonalEdgeStyle;rounded=0;orthogonalLoop=1;jettySize=auto;html=1;entryX=1;entryY=0.5;entryDx=0;entryDy=0;" parent="1" source="9g6fr28oXQyt0fG_JzUV-1" target="lxjIZeJzsX1PqnyMVu6G-4" edge="1">
          <mxGeometry relative="1" as="geometry">
            <Array as="points">
              <mxPoint x="290.25" y="263" />
              <mxPoint x="290.25" y="160" />
            </Array>
          </mxGeometry>
        </mxCell>
        <mxCell id="9g6fr28oXQyt0fG_JzUV-5" value="else" style="edgeLabel;html=1;align=center;verticalAlign=middle;resizable=0;points=[];" parent="9g6fr28oXQyt0fG_JzUV-4" vertex="1" connectable="0">
          <mxGeometry x="-0.7175" relative="1" as="geometry">
            <mxPoint as="offset" />
          </mxGeometry>
        </mxCell>
        <mxCell id="9g6fr28oXQyt0fG_JzUV-7" value="" style="edgeStyle=orthogonalEdgeStyle;rounded=0;orthogonalLoop=1;jettySize=auto;html=1;" parent="1" source="9g6fr28oXQyt0fG_JzUV-1" target="9g6fr28oXQyt0fG_JzUV-6" edge="1">
          <mxGeometry relative="1" as="geometry" />
        </mxCell>
        <mxCell id="9g6fr28oXQyt0fG_JzUV-8" value="&lt;font style=&quot;font-size: 11px;&quot;&gt;Tag&amp;nbsp;&lt;span style=&quot;background-color: rgb(251, 251, 251);&quot;&gt;recognized&lt;/span&gt;&lt;/font&gt;" style="edgeLabel;html=1;align=center;verticalAlign=middle;resizable=0;points=[];" parent="9g6fr28oXQyt0fG_JzUV-7" vertex="1" connectable="0">
          <mxGeometry x="0.1215" y="1" relative="1" as="geometry">
            <mxPoint x="-1" y="-10" as="offset" />
          </mxGeometry>
        </mxCell>
        <mxCell id="9g6fr28oXQyt0fG_JzUV-1" value="" style="rhombus;whiteSpace=wrap;html=1;labelPosition=center;verticalLabelPosition=middle;align=center;verticalAlign=middle;" parent="1" vertex="1">
          <mxGeometry x="157.75" y="220" width="85" height="85" as="geometry" />
        </mxCell>
        <mxCell id="9g6fr28oXQyt0fG_JzUV-12" value="" style="edgeStyle=orthogonalEdgeStyle;rounded=0;orthogonalLoop=1;jettySize=auto;html=1;" parent="1" source="9g6fr28oXQyt0fG_JzUV-6" target="9g6fr28oXQyt0fG_JzUV-9" edge="1">
          <mxGeometry relative="1" as="geometry" />
        </mxCell>
        <mxCell id="9g6fr28oXQyt0fG_JzUV-6" value="Select password image" style="rounded=1;whiteSpace=wrap;html=1;" parent="1" vertex="1">
          <mxGeometry x="140.25" y="350" width="120" height="40" as="geometry" />
        </mxCell>
        <mxCell id="9g6fr28oXQyt0fG_JzUV-10" style="edgeStyle=orthogonalEdgeStyle;rounded=0;orthogonalLoop=1;jettySize=auto;html=1;entryX=0;entryY=0.5;entryDx=0;entryDy=0;exitX=1;exitY=0.5;exitDx=0;exitDy=0;" parent="1" source="9g6fr28oXQyt0fG_JzUV-9" target="9g6fr28oXQyt0fG_JzUV-21" edge="1">
          <mxGeometry relative="1" as="geometry">
            <Array as="points">
              <mxPoint x="326.25" y="460" />
              <mxPoint x="326.25" y="460" />
            </Array>
          </mxGeometry>
        </mxCell>
        <mxCell id="9g6fr28oXQyt0fG_JzUV-11" value="&lt;font style=&quot;font-size: 11px;&quot;&gt;Incorrect&amp;nbsp;&lt;span style=&quot;background-color: rgb(251, 251, 251);&quot;&gt;image&lt;/span&gt;&lt;/font&gt;" style="edgeLabel;html=1;align=center;verticalAlign=middle;resizable=0;points=[];" parent="9g6fr28oXQyt0fG_JzUV-10" vertex="1" connectable="0">
          <mxGeometry x="-0.7515" relative="1" as="geometry">
            <mxPoint x="27" y="-10" as="offset" />
          </mxGeometry>
        </mxCell>
        <mxCell id="9g6fr28oXQyt0fG_JzUV-17" style="edgeStyle=orthogonalEdgeStyle;rounded=0;orthogonalLoop=1;jettySize=auto;html=1;entryX=0.5;entryY=0;entryDx=0;entryDy=0;" parent="1" source="9g6fr28oXQyt0fG_JzUV-9" target="lxjIZeJzsX1PqnyMVu6G-6" edge="1">
          <mxGeometry relative="1" as="geometry" />
        </mxCell>
        <mxCell id="brlB-Po1t1x8IOnq90yn-2" value="Correct&lt;font style=&quot;font-size: 11px;&quot;&gt;&amp;nbsp;&lt;span style=&quot;background-color: rgb(251, 251, 251);&quot;&gt;image&lt;/span&gt;&lt;/font&gt;" style="edgeLabel;html=1;align=center;verticalAlign=middle;resizable=0;points=[];" vertex="1" connectable="0" parent="9g6fr28oXQyt0fG_JzUV-17">
          <mxGeometry x="-0.3569" y="-1" relative="1" as="geometry">
            <mxPoint as="offset" />
          </mxGeometry>
        </mxCell>
        <mxCell id="9g6fr28oXQyt0fG_JzUV-9" value="" style="rhombus;whiteSpace=wrap;html=1;labelPosition=center;verticalLabelPosition=middle;align=center;verticalAlign=middle;" parent="1" vertex="1">
          <mxGeometry x="157.75" y="417.5" width="85" height="85" as="geometry" />
        </mxCell>
        <mxCell id="9g6fr28oXQyt0fG_JzUV-14" style="edgeStyle=orthogonalEdgeStyle;rounded=0;orthogonalLoop=1;jettySize=auto;html=1;entryX=1;entryY=0.5;entryDx=0;entryDy=0;exitX=1;exitY=0.5;exitDx=0;exitDy=0;" parent="1" source="9g6fr28oXQyt0fG_JzUV-13" target="lxjIZeJzsX1PqnyMVu6G-6" edge="1">
          <mxGeometry relative="1" as="geometry">
            <Array as="points">
              <mxPoint x="286.25" y="658" />
              <mxPoint x="286.25" y="560" />
            </Array>
          </mxGeometry>
        </mxCell>
        <mxCell id="9g6fr28oXQyt0fG_JzUV-15" value="Cancel snack" style="edgeLabel;html=1;align=center;verticalAlign=middle;resizable=0;points=[];" parent="9g6fr28oXQyt0fG_JzUV-14" vertex="1" connectable="0">
          <mxGeometry x="-0.8166" relative="1" as="geometry">
            <mxPoint x="23" y="-27" as="offset" />
          </mxGeometry>
        </mxCell>
        <mxCell id="9g6fr28oXQyt0fG_JzUV-19" style="edgeStyle=orthogonalEdgeStyle;rounded=0;orthogonalLoop=1;jettySize=auto;html=1;exitX=0.5;exitY=1;exitDx=0;exitDy=0;" parent="1" source="9g6fr28oXQyt0fG_JzUV-13" target="lxjIZeJzsX1PqnyMVu6G-16" edge="1">
          <mxGeometry relative="1" as="geometry">
            <mxPoint x="200.26315789473688" y="719.9968421052631" as="sourcePoint" />
          </mxGeometry>
        </mxCell>
        <mxCell id="brlB-Po1t1x8IOnq90yn-5" value="Confirm" style="edgeLabel;html=1;align=center;verticalAlign=middle;resizable=0;points=[];" vertex="1" connectable="0" parent="9g6fr28oXQyt0fG_JzUV-19">
          <mxGeometry x="0.3098" relative="1" as="geometry">
            <mxPoint y="-12" as="offset" />
          </mxGeometry>
        </mxCell>
        <mxCell id="9g6fr28oXQyt0fG_JzUV-13" value="" style="rhombus;whiteSpace=wrap;html=1;labelPosition=center;verticalLabelPosition=middle;align=center;verticalAlign=middle;" parent="1" vertex="1">
          <mxGeometry x="157.75" y="615" width="85" height="85" as="geometry" />
        </mxCell>
        <mxCell id="9g6fr28oXQyt0fG_JzUV-24" value="" style="edgeStyle=orthogonalEdgeStyle;rounded=0;orthogonalLoop=1;jettySize=auto;html=1;" parent="1" source="9g6fr28oXQyt0fG_JzUV-21" target="9g6fr28oXQyt0fG_JzUV-23" edge="1">
          <mxGeometry relative="1" as="geometry" />
        </mxCell>
        <mxCell id="9g6fr28oXQyt0fG_JzUV-21" value="Select password image again" style="rounded=1;whiteSpace=wrap;html=1;" parent="1" vertex="1">
          <mxGeometry x="330.25" y="440" width="120" height="40" as="geometry" />
        </mxCell>
        <mxCell id="9g6fr28oXQyt0fG_JzUV-26" value="" style="edgeStyle=orthogonalEdgeStyle;rounded=0;orthogonalLoop=1;jettySize=auto;html=1;" parent="1" source="9g6fr28oXQyt0fG_JzUV-23" edge="1">
          <mxGeometry relative="1" as="geometry">
            <mxPoint x="670.25" y="460.0000000000001" as="targetPoint" />
          </mxGeometry>
        </mxCell>
        <mxCell id="9g6fr28oXQyt0fG_JzUV-29" value="Incorrect&amp;nbsp;image" style="edgeLabel;html=1;align=center;verticalAlign=middle;resizable=0;points=[];" parent="9g6fr28oXQyt0fG_JzUV-26" vertex="1" connectable="0">
          <mxGeometry x="-0.173" y="-2" relative="1" as="geometry">
            <mxPoint y="-17" as="offset" />
          </mxGeometry>
        </mxCell>
        <mxCell id="9g6fr28oXQyt0fG_JzUV-23" value="" style="rhombus;whiteSpace=wrap;html=1;labelPosition=center;verticalLabelPosition=middle;align=center;verticalAlign=middle;" parent="1" vertex="1">
          <mxGeometry x="506.25" y="417.5" width="85" height="85" as="geometry" />
        </mxCell>
        <mxCell id="9g6fr28oXQyt0fG_JzUV-27" value="" style="shape=sumEllipse;perimeter=ellipsePerimeter;whiteSpace=wrap;html=1;backgroundOutline=1;" parent="1" vertex="1">
          <mxGeometry x="670.25" y="445" width="30" height="30" as="geometry" />
        </mxCell>
        <mxCell id="9g6fr28oXQyt0fG_JzUV-30" style="edgeStyle=orthogonalEdgeStyle;rounded=0;orthogonalLoop=1;jettySize=auto;html=1;entryX=1;entryY=0.5;entryDx=0;entryDy=0;" parent="1" target="lxjIZeJzsX1PqnyMVu6G-6" edge="1">
          <mxGeometry relative="1" as="geometry">
            <mxPoint x="551.033355704698" y="502.4966442953021" as="sourcePoint" />
            <mxPoint x="290.25" y="560" as="targetPoint" />
            <Array as="points">
              <mxPoint x="551.25" y="520" />
              <mxPoint x="551.25" y="520" />
              <mxPoint x="551.25" y="560" />
            </Array>
          </mxGeometry>
        </mxCell>
        <mxCell id="9g6fr28oXQyt0fG_JzUV-31" value="Correct&lt;font style=&quot;border-color: var(--border-color);&quot;&gt;&amp;nbsp;image&lt;/font&gt;" style="edgeLabel;html=1;align=center;verticalAlign=middle;resizable=0;points=[];" parent="9g6fr28oXQyt0fG_JzUV-30" vertex="1" connectable="0">
          <mxGeometry x="-0.8027" y="2" relative="1" as="geometry">
            <mxPoint y="-7" as="offset" />
          </mxGeometry>
        </mxCell>
        <mxCell id="OcSzvjbrqHsvqV__pesb-1" value="Buy Snack Activity" style="swimlane;whiteSpace=wrap;html=1;" vertex="1" parent="1">
          <mxGeometry x="99" y="40" width="630" height="840" as="geometry" />
        </mxCell>
      </root>
    </mxGraphModel>
  </diagram>
  <diagram id="ZnGrTBaetgmKk68uBGjz" name="Admin activities">
    <mxGraphModel dx="1050" dy="600" grid="1" gridSize="10" guides="1" tooltips="1" connect="1" arrows="1" fold="1" page="1" pageScale="1" pageWidth="827" pageHeight="1169" math="0" shadow="0">
      <root>
        <mxCell id="0" />
        <mxCell id="1" parent="0" />
        <mxCell id="LrSgqgR7H2sFmHnyusUk-1" value="" style="edgeStyle=orthogonalEdgeStyle;rounded=0;orthogonalLoop=1;jettySize=auto;html=1;" parent="1" source="LrSgqgR7H2sFmHnyusUk-2" target="LrSgqgR7H2sFmHnyusUk-4" edge="1">
          <mxGeometry relative="1" as="geometry" />
        </mxCell>
        <mxCell id="LrSgqgR7H2sFmHnyusUk-2" value="" style="ellipse;whiteSpace=wrap;html=1;rounded=0;shadow=0;comic=0;labelBackgroundColor=none;strokeWidth=1;fillColor=#000000;fontFamily=Verdana;fontSize=12;align=center;" parent="1" vertex="1">
          <mxGeometry x="390" y="130" width="20" height="20" as="geometry" />
        </mxCell>
        <mxCell id="LrSgqgR7H2sFmHnyusUk-3" value="" style="edgeStyle=orthogonalEdgeStyle;rounded=0;orthogonalLoop=1;jettySize=auto;html=1;entryX=0.5;entryY=0;entryDx=0;entryDy=0;" parent="1" source="LrSgqgR7H2sFmHnyusUk-4" target="LrSgqgR7H2sFmHnyusUk-14" edge="1">
          <mxGeometry relative="1" as="geometry">
            <mxPoint x="400" y="270" as="targetPoint" />
          </mxGeometry>
        </mxCell>
        <mxCell id="LrSgqgR7H2sFmHnyusUk-4" value="Use NFC tag with admin privilege to authenticate" style="rounded=1;whiteSpace=wrap;html=1;" parent="1" vertex="1">
          <mxGeometry x="340" y="180" width="120" height="50" as="geometry" />
        </mxCell>
        <mxCell id="LrSgqgR7H2sFmHnyusUk-9" value="" style="ellipse;html=1;shape=endState;fillColor=#000000;strokeColor=#000000;" parent="1" vertex="1">
          <mxGeometry x="385" y="570" width="30" height="29" as="geometry" />
        </mxCell>
        <mxCell id="LrSgqgR7H2sFmHnyusUk-12" value="" style="edgeStyle=orthogonalEdgeStyle;rounded=0;orthogonalLoop=1;jettySize=auto;html=1;entryX=0.5;entryY=0;entryDx=0;entryDy=0;" parent="1" source="LrSgqgR7H2sFmHnyusUk-14" target="LrSgqgR7H2sFmHnyusUk-37" edge="1">
          <mxGeometry relative="1" as="geometry">
            <mxPoint x="400" y="400" as="targetPoint" />
          </mxGeometry>
        </mxCell>
        <mxCell id="LrSgqgR7H2sFmHnyusUk-13" value="Tag&amp;nbsp;&lt;span style=&quot;font-size: 12px; background-color: rgb(251, 251, 251);&quot;&gt;recognized as admin&lt;/span&gt;" style="edgeLabel;html=1;align=center;verticalAlign=middle;resizable=0;points=[];" parent="LrSgqgR7H2sFmHnyusUk-12" vertex="1" connectable="0">
          <mxGeometry x="0.1215" y="1" relative="1" as="geometry">
            <mxPoint x="-1" y="-10" as="offset" />
          </mxGeometry>
        </mxCell>
        <mxCell id="LrSgqgR7H2sFmHnyusUk-35" style="edgeStyle=orthogonalEdgeStyle;rounded=0;orthogonalLoop=1;jettySize=auto;html=1;entryX=1;entryY=0.5;entryDx=0;entryDy=0;" parent="1" source="LrSgqgR7H2sFmHnyusUk-14" target="LrSgqgR7H2sFmHnyusUk-4" edge="1">
          <mxGeometry relative="1" as="geometry">
            <Array as="points">
              <mxPoint x="490" y="312" />
              <mxPoint x="490" y="205" />
            </Array>
          </mxGeometry>
        </mxCell>
        <mxCell id="LrSgqgR7H2sFmHnyusUk-36" value="else" style="edgeLabel;html=1;align=center;verticalAlign=middle;resizable=0;points=[];" parent="LrSgqgR7H2sFmHnyusUk-35" vertex="1" connectable="0">
          <mxGeometry x="-0.8288" y="-1" relative="1" as="geometry">
            <mxPoint x="12" y="-1" as="offset" />
          </mxGeometry>
        </mxCell>
        <mxCell id="LrSgqgR7H2sFmHnyusUk-14" value="" style="rhombus;whiteSpace=wrap;html=1;labelPosition=center;verticalLabelPosition=middle;align=center;verticalAlign=middle;" parent="1" vertex="1">
          <mxGeometry x="357.5" y="270" width="85" height="85" as="geometry" />
        </mxCell>
        <mxCell id="LrSgqgR7H2sFmHnyusUk-39" value="" style="edgeStyle=orthogonalEdgeStyle;rounded=0;orthogonalLoop=1;jettySize=auto;html=1;" parent="1" source="LrSgqgR7H2sFmHnyusUk-37" target="LrSgqgR7H2sFmHnyusUk-38" edge="1">
          <mxGeometry relative="1" as="geometry" />
        </mxCell>
        <mxCell id="LrSgqgR7H2sFmHnyusUk-37" value="Choose product" style="rounded=1;whiteSpace=wrap;html=1;" parent="1" vertex="1">
          <mxGeometry x="340" y="410" width="120" height="40" as="geometry" />
        </mxCell>
        <mxCell id="LrSgqgR7H2sFmHnyusUk-40" value="" style="edgeStyle=orthogonalEdgeStyle;rounded=0;orthogonalLoop=1;jettySize=auto;html=1;" parent="1" source="LrSgqgR7H2sFmHnyusUk-38" target="LrSgqgR7H2sFmHnyusUk-9" edge="1">
          <mxGeometry relative="1" as="geometry" />
        </mxCell>
        <mxCell id="LrSgqgR7H2sFmHnyusUk-38" value="Set product stock" style="rounded=1;whiteSpace=wrap;html=1;" parent="1" vertex="1">
          <mxGeometry x="340" y="490" width="120" height="40" as="geometry" />
        </mxCell>
        <mxCell id="UOZQTFy7tR3uBAgpgIby-1" value="Update Product Stock Activity" style="swimlane;whiteSpace=wrap;html=1;" vertex="1" parent="1">
          <mxGeometry x="280" y="80" width="250" height="560" as="geometry" />
        </mxCell>
      </root>
    </mxGraphModel>
  </diagram>
</mxfile>
